<svg xmlns="http://www.w3.org/2000/svg" viewBox="0 0 64 64">
  <defs>
    <linearGradient id="g" x1="0%" y1="0%" x2="100%" y2="100%">
      <stop offset="0%" stop-color="#0ea5e9"/>
      <stop offset="100%" stop-color="#0369a1"/>
    </linearGradient>
  </defs>
  <circle cx="32" cy="32" r="30" fill="url(#g)"/>
  <path d="M48 28l-12-4-4-12c0-1-1-2-2-2s-2 1-2 2l-4 12-12 4c-1 0-2 1-2 2s1 2 2 2l12 4 4 12c0 1 1 2 2 2s2-1 2-2l4-12 12-4c1 0 2-1 2-2s-1-2-2-2z" fill="white" opacity="0.15"/>
  <g transform="translate(32,32) rotate(-45)">
    <path d="M-2,-20 L2,-20 L2,-6 L14,4 L14,8 L2,2 L2,12 L6,16 L6,19 L0,16 L-6,19 L-6,16 L-2,12 L-2,2 L-14,8 L-14,4 L-2,-6 Z" fill="white"/>
  </g>
</svg>
